%TF.GenerationSoftware,KiCad,Pcbnew,8.0.4*%
%TF.CreationDate,2024-08-13T00:07:41-07:00*%
%TF.ProjectId,RoboRyo,526f626f-5279-46f2-9e6b-696361645f70,rev?*%
%TF.SameCoordinates,Original*%
%TF.FileFunction,Soldermask,Bot*%
%TF.FilePolarity,Negative*%
%FSLAX46Y46*%
G04 Gerber Fmt 4.6, Leading zero omitted, Abs format (unit mm)*
G04 Created by KiCad (PCBNEW 8.0.4) date 2024-08-13 00:07:41*
%MOMM*%
%LPD*%
G01*
G04 APERTURE LIST*
%ADD10R,1.800000X1.800000*%
%ADD11C,1.800000*%
%ADD12R,1.214000X1.214000*%
%ADD13C,1.214000*%
%ADD14R,1.575000X1.575000*%
%ADD15C,1.575000*%
G04 APERTURE END LIST*
D10*
%TO.C,PowerIN1*%
X135350000Y-75650000D03*
D11*
X135350000Y-80650000D03*
X146850000Y-75650000D03*
X146850000Y-80650000D03*
%TD*%
D10*
%TO.C,J8*%
X189750000Y-130499999D03*
D11*
X184750000Y-130499999D03*
X189750000Y-133999999D03*
X184750000Y-133999999D03*
X189750000Y-137499998D03*
X184750001Y-137499999D03*
%TD*%
D10*
%TO.C,J7*%
X189750000Y-100785710D03*
D11*
X184750000Y-100785710D03*
X189750000Y-104285710D03*
X184750000Y-104285710D03*
X189750000Y-107785709D03*
X184750001Y-107785710D03*
%TD*%
D10*
%TO.C,J6*%
X189750000Y-71071426D03*
D11*
X184750000Y-71071426D03*
X189750000Y-74571426D03*
X184750000Y-74571426D03*
X189750000Y-78071425D03*
X184750001Y-78071426D03*
%TD*%
D10*
%TO.C,J5*%
X189750000Y-41357142D03*
D11*
X184750000Y-41357142D03*
X189750000Y-44857142D03*
X184750000Y-44857142D03*
X189750000Y-48357141D03*
X184750001Y-48357142D03*
%TD*%
D10*
%TO.C,J4*%
X189750000Y-115642852D03*
D11*
X184750000Y-115642852D03*
X189750000Y-119142852D03*
X184750000Y-119142852D03*
X189750000Y-122642851D03*
X184750001Y-122642852D03*
%TD*%
D10*
%TO.C,J3*%
X189750000Y-85928568D03*
D11*
X184750000Y-85928568D03*
X189750000Y-89428568D03*
X184750000Y-89428568D03*
X189750000Y-92928567D03*
X184750001Y-92928568D03*
%TD*%
D10*
%TO.C,J2*%
X189750000Y-56214284D03*
D11*
X184750000Y-56214284D03*
X189750000Y-59714284D03*
X184750000Y-59714284D03*
X189750000Y-63214283D03*
X184750001Y-63214284D03*
%TD*%
D10*
%TO.C,J1*%
X189750000Y-26500000D03*
D11*
X184750000Y-26500000D03*
X189750000Y-30000000D03*
X184750000Y-30000000D03*
X189750000Y-33499999D03*
X184750001Y-33500000D03*
%TD*%
D12*
%TO.C,IC1*%
X59377000Y-114713000D03*
D13*
X59377000Y-112706000D03*
X59377000Y-110700000D03*
X59377000Y-108693000D03*
X59377000Y-106687000D03*
X59377000Y-104680000D03*
X59377000Y-102673000D03*
X59377000Y-100667000D03*
X59377000Y-98660000D03*
X59377000Y-96654000D03*
X37381000Y-96654000D03*
X37381000Y-98660000D03*
X37381000Y-100667000D03*
X37381000Y-102673000D03*
X37381000Y-104680000D03*
X37381000Y-106687000D03*
X37381000Y-108693000D03*
X37381000Y-110700000D03*
X37381000Y-112706000D03*
X37381000Y-114713000D03*
%TD*%
D10*
%TO.C,DO13*%
X76397000Y-78975000D03*
D11*
X76397000Y-83975000D03*
X79897000Y-78975000D03*
X79897000Y-83975000D03*
%TD*%
D10*
%TO.C,DO12*%
X64057000Y-78975000D03*
D11*
X64057000Y-83975000D03*
X67557000Y-78975000D03*
X67557000Y-83975000D03*
%TD*%
D10*
%TO.C,DO11*%
X51717000Y-78975000D03*
D11*
X51717000Y-83975000D03*
X55217000Y-78975000D03*
X55217000Y-83975000D03*
%TD*%
D10*
%TO.C,DO10*%
X39377000Y-78975000D03*
D11*
X39377000Y-83975000D03*
X42877000Y-78975000D03*
X42877000Y-83975000D03*
%TD*%
D10*
%TO.C,DO9*%
X88737000Y-59300000D03*
D11*
X88737000Y-64300000D03*
X92237000Y-59300000D03*
X92237000Y-64300000D03*
%TD*%
D10*
%TO.C,DO8*%
X76397000Y-59300000D03*
D11*
X76397000Y-64300000D03*
X79897000Y-59300000D03*
X79897000Y-64300000D03*
%TD*%
D10*
%TO.C,DO7*%
X64057000Y-59300000D03*
D11*
X64057000Y-64300000D03*
X67557000Y-59300000D03*
X67557000Y-64300000D03*
%TD*%
D10*
%TO.C,DO6*%
X51717000Y-59300000D03*
D11*
X51717000Y-64300000D03*
X55217000Y-59300000D03*
X55217000Y-64300000D03*
%TD*%
D10*
%TO.C,DO5*%
X39377000Y-59300000D03*
D11*
X39377000Y-64300000D03*
X42877000Y-59300000D03*
X42877000Y-64300000D03*
%TD*%
D10*
%TO.C,DO4*%
X88737000Y-39625000D03*
D11*
X88737000Y-44625000D03*
X92237000Y-39625000D03*
X92237000Y-44625000D03*
%TD*%
D10*
%TO.C,DO3*%
X76397000Y-39625000D03*
D11*
X76397000Y-44625000D03*
X79897000Y-39625000D03*
X79897000Y-44625000D03*
%TD*%
D10*
%TO.C,DO2*%
X64057000Y-39625000D03*
D11*
X64057000Y-44625000D03*
X67557000Y-39625000D03*
X67557000Y-44625000D03*
%TD*%
D10*
%TO.C,DO1*%
X51717000Y-39625000D03*
D11*
X51717000Y-44625000D03*
X55217000Y-39625000D03*
X55217000Y-44625000D03*
%TD*%
D14*
%TO.C,D12*%
X97900000Y-80000000D03*
D15*
X117000000Y-80000000D03*
%TD*%
D14*
%TO.C,D11*%
X97900000Y-75150000D03*
D15*
X117000000Y-75150000D03*
%TD*%
D14*
%TO.C,D10*%
X97900000Y-70300000D03*
D15*
X117000000Y-70300000D03*
%TD*%
D14*
%TO.C,D9*%
X97900000Y-65450000D03*
D15*
X117000000Y-65450000D03*
%TD*%
D14*
%TO.C,D8*%
X97900000Y-60600000D03*
D15*
X117000000Y-60600000D03*
%TD*%
D14*
%TO.C,D7*%
X97900000Y-55750000D03*
D15*
X117000000Y-55750000D03*
%TD*%
D14*
%TO.C,D6*%
X97900000Y-50900000D03*
D15*
X117000000Y-50900000D03*
%TD*%
D14*
%TO.C,D3*%
X97900000Y-46050000D03*
D15*
X117000000Y-46050000D03*
%TD*%
D14*
%TO.C,D2*%
X97900000Y-41200000D03*
D15*
X117000000Y-41200000D03*
%TD*%
D14*
%TO.C,D1*%
X97900000Y-36350000D03*
D15*
X117000000Y-36350000D03*
%TD*%
D10*
%TO.C,CAN1*%
X39377000Y-39625000D03*
D11*
X39377000Y-44625000D03*
X42877000Y-39625000D03*
X42877000Y-44625000D03*
%TD*%
M02*
