%TF.GenerationSoftware,KiCad,Pcbnew,8.0.4*%
%TF.CreationDate,2024-08-13T00:07:41-07:00*%
%TF.ProjectId,RoboRyo,526f626f-5279-46f2-9e6b-696361645f70,rev?*%
%TF.SameCoordinates,Original*%
%TF.FileFunction,Soldermask,Top*%
%TF.FilePolarity,Negative*%
%FSLAX46Y46*%
G04 Gerber Fmt 4.6, Leading zero omitted, Abs format (unit mm)*
G04 Created by KiCad (PCBNEW 8.0.4) date 2024-08-13 00:07:41*
%MOMM*%
%LPD*%
G01*
G04 APERTURE LIST*
G04 Aperture macros list*
%AMRoundRect*
0 Rectangle with rounded corners*
0 $1 Rounding radius*
0 $2 $3 $4 $5 $6 $7 $8 $9 X,Y pos of 4 corners*
0 Add a 4 corners polygon primitive as box body*
4,1,4,$2,$3,$4,$5,$6,$7,$8,$9,$2,$3,0*
0 Add four circle primitives for the rounded corners*
1,1,$1+$1,$2,$3*
1,1,$1+$1,$4,$5*
1,1,$1+$1,$6,$7*
1,1,$1+$1,$8,$9*
0 Add four rect primitives between the rounded corners*
20,1,$1+$1,$2,$3,$4,$5,0*
20,1,$1+$1,$4,$5,$6,$7,0*
20,1,$1+$1,$6,$7,$8,$9,0*
20,1,$1+$1,$8,$9,$2,$3,0*%
G04 Aperture macros list end*
%ADD10R,1.700000X3.700000*%
%ADD11R,0.700000X0.500000*%
%ADD12R,0.475000X0.500000*%
%ADD13R,0.750000X0.600000*%
%ADD14R,0.650000X0.900000*%
%ADD15R,0.250000X0.150000*%
%ADD16R,0.250000X0.500000*%
%ADD17R,1.500000X0.650000*%
%ADD18R,1.800000X1.800000*%
%ADD19C,1.800000*%
%ADD20R,0.950000X0.950000*%
%ADD21R,1.500000X2.800000*%
%ADD22R,6.300000X6.100000*%
%ADD23R,1.000000X2.100000*%
%ADD24R,4.900000X5.850000*%
%ADD25R,1.214000X1.214000*%
%ADD26C,1.214000*%
%ADD27R,1.575000X1.575000*%
%ADD28C,1.575000*%
%ADD29R,0.730000X0.940000*%
%ADD30R,0.460000X0.420000*%
%ADD31R,0.254000X0.675000*%
%ADD32R,0.675000X0.254000*%
%ADD33RoundRect,0.075000X0.441942X-0.548008X0.548008X-0.441942X-0.441942X0.548008X-0.548008X0.441942X0*%
%ADD34RoundRect,0.075000X-0.441942X-0.548008X0.548008X0.441942X0.441942X0.548008X-0.548008X-0.441942X0*%
G04 APERTURE END LIST*
D10*
%TO.C,S1*%
X115514000Y-114477000D03*
X121414000Y-114477000D03*
%TD*%
D11*
%TO.C,RSL1*%
X116064000Y-119450000D03*
X116964000Y-119450000D03*
%TD*%
D12*
%TO.C,R7*%
X66805000Y-118460000D03*
X67829000Y-118460000D03*
%TD*%
%TO.C,R6*%
X66805000Y-116310000D03*
X67829000Y-116310000D03*
%TD*%
D13*
%TO.C,R5*%
X66767000Y-114160000D03*
X67867000Y-114160000D03*
%TD*%
D14*
%TO.C,R4*%
X152825000Y-83950000D03*
X154275000Y-83950000D03*
%TD*%
%TO.C,R3*%
X152825000Y-79950000D03*
X154275000Y-79950000D03*
%TD*%
%TO.C,R2*%
X152825000Y-75950000D03*
X154275000Y-75950000D03*
%TD*%
%TO.C,R1*%
X152825000Y-71950000D03*
X154275000Y-71950000D03*
%TD*%
D15*
%TO.C,Q7*%
X121089000Y-119325000D03*
X121089000Y-119675000D03*
D16*
X121739000Y-119500000D03*
%TD*%
D17*
%TO.C,Q5*%
X107239000Y-117495000D03*
X107239000Y-118765000D03*
X107239000Y-120035000D03*
X107239000Y-121305000D03*
X112639000Y-121305000D03*
X112639000Y-120035000D03*
X112639000Y-118765000D03*
X112639000Y-117495000D03*
%TD*%
%TO.C,Q4*%
X107239000Y-110995000D03*
X107239000Y-112265000D03*
X107239000Y-113535000D03*
X107239000Y-114805000D03*
X112639000Y-114805000D03*
X112639000Y-113535000D03*
X112639000Y-112265000D03*
X112639000Y-110995000D03*
%TD*%
%TO.C,Q3*%
X107239000Y-104495000D03*
X107239000Y-105765000D03*
X107239000Y-107035000D03*
X107239000Y-108305000D03*
X112639000Y-108305000D03*
X112639000Y-107035000D03*
X112639000Y-105765000D03*
X112639000Y-104495000D03*
%TD*%
%TO.C,Q2*%
X107239000Y-97995000D03*
X107239000Y-99265000D03*
X107239000Y-100535000D03*
X107239000Y-101805000D03*
X112639000Y-101805000D03*
X112639000Y-100535000D03*
X112639000Y-99265000D03*
X112639000Y-97995000D03*
%TD*%
%TO.C,Q1*%
X107239000Y-91495000D03*
X107239000Y-92765000D03*
X107239000Y-94035000D03*
X107239000Y-95305000D03*
X112639000Y-95305000D03*
X112639000Y-94035000D03*
X112639000Y-92765000D03*
X112639000Y-91495000D03*
%TD*%
D18*
%TO.C,PowerIN1*%
X135350000Y-75650000D03*
D19*
X135350000Y-80650000D03*
X146850000Y-75650000D03*
X146850000Y-80650000D03*
%TD*%
D20*
%TO.C,LED1-Y1*%
X157600000Y-83000000D03*
X159100000Y-83000000D03*
%TD*%
%TO.C,LED1-R1*%
X157600000Y-80100000D03*
X159100000Y-80100000D03*
%TD*%
%TO.C,LED1-G1*%
X157600000Y-77200000D03*
X159100000Y-77200000D03*
%TD*%
%TO.C,LED1-B1*%
X157600000Y-74300000D03*
X159100000Y-74300000D03*
%TD*%
%TO.C,LED1-A1*%
X157600000Y-71400000D03*
X159100000Y-71400000D03*
%TD*%
D18*
%TO.C,J8*%
X189750000Y-130499999D03*
D19*
X184750000Y-130499999D03*
X189750000Y-133999999D03*
X184750000Y-133999999D03*
X189750000Y-137499998D03*
X184750001Y-137499999D03*
%TD*%
D18*
%TO.C,J7*%
X189750000Y-100785710D03*
D19*
X184750000Y-100785710D03*
X189750000Y-104285710D03*
X184750000Y-104285710D03*
X189750000Y-107785709D03*
X184750001Y-107785710D03*
%TD*%
D18*
%TO.C,J6*%
X189750000Y-71071426D03*
D19*
X184750000Y-71071426D03*
X189750000Y-74571426D03*
X184750000Y-74571426D03*
X189750000Y-78071425D03*
X184750001Y-78071426D03*
%TD*%
D18*
%TO.C,J5*%
X189750000Y-41357142D03*
D19*
X184750000Y-41357142D03*
X189750000Y-44857142D03*
X184750000Y-44857142D03*
X189750000Y-48357141D03*
X184750001Y-48357142D03*
%TD*%
D18*
%TO.C,J4*%
X189750000Y-115642852D03*
D19*
X184750000Y-115642852D03*
X189750000Y-119142852D03*
X184750000Y-119142852D03*
X189750000Y-122642851D03*
X184750001Y-122642852D03*
%TD*%
D18*
%TO.C,J3*%
X189750000Y-85928568D03*
D19*
X184750000Y-85928568D03*
X189750000Y-89428568D03*
X184750000Y-89428568D03*
X189750000Y-92928567D03*
X184750001Y-92928568D03*
%TD*%
D18*
%TO.C,J2*%
X189750000Y-56214284D03*
D19*
X184750000Y-56214284D03*
X189750000Y-59714284D03*
X184750000Y-59714284D03*
X189750000Y-63214283D03*
X184750001Y-63214284D03*
%TD*%
D18*
%TO.C,J1*%
X189750000Y-26500000D03*
D19*
X184750000Y-26500000D03*
X189750000Y-30000000D03*
X184750000Y-30000000D03*
X189750000Y-33499999D03*
X184750001Y-33500000D03*
%TD*%
D21*
%TO.C,IC3*%
X225214000Y-64750000D03*
D22*
X227500000Y-58500000D03*
D21*
X229786000Y-64750000D03*
%TD*%
D23*
%TO.C,IC2*%
X206470000Y-65550001D03*
X211030000Y-65550001D03*
D24*
X208750000Y-58750000D03*
%TD*%
D25*
%TO.C,IC1*%
X59377000Y-114713000D03*
D26*
X59377000Y-112706000D03*
X59377000Y-110700000D03*
X59377000Y-108693000D03*
X59377000Y-106687000D03*
X59377000Y-104680000D03*
X59377000Y-102673000D03*
X59377000Y-100667000D03*
X59377000Y-98660000D03*
X59377000Y-96654000D03*
X37381000Y-96654000D03*
X37381000Y-98660000D03*
X37381000Y-100667000D03*
X37381000Y-102673000D03*
X37381000Y-104680000D03*
X37381000Y-106687000D03*
X37381000Y-108693000D03*
X37381000Y-110700000D03*
X37381000Y-112706000D03*
X37381000Y-114713000D03*
%TD*%
D18*
%TO.C,DO13*%
X76397000Y-78975000D03*
D19*
X76397000Y-83975000D03*
X79897000Y-78975000D03*
X79897000Y-83975000D03*
%TD*%
D18*
%TO.C,DO12*%
X64057000Y-78975000D03*
D19*
X64057000Y-83975000D03*
X67557000Y-78975000D03*
X67557000Y-83975000D03*
%TD*%
D18*
%TO.C,DO11*%
X51717000Y-78975000D03*
D19*
X51717000Y-83975000D03*
X55217000Y-78975000D03*
X55217000Y-83975000D03*
%TD*%
D18*
%TO.C,DO10*%
X39377000Y-78975000D03*
D19*
X39377000Y-83975000D03*
X42877000Y-78975000D03*
X42877000Y-83975000D03*
%TD*%
D18*
%TO.C,DO9*%
X88737000Y-59300000D03*
D19*
X88737000Y-64300000D03*
X92237000Y-59300000D03*
X92237000Y-64300000D03*
%TD*%
D18*
%TO.C,DO8*%
X76397000Y-59300000D03*
D19*
X76397000Y-64300000D03*
X79897000Y-59300000D03*
X79897000Y-64300000D03*
%TD*%
D18*
%TO.C,DO7*%
X64057000Y-59300000D03*
D19*
X64057000Y-64300000D03*
X67557000Y-59300000D03*
X67557000Y-64300000D03*
%TD*%
D18*
%TO.C,DO6*%
X51717000Y-59300000D03*
D19*
X51717000Y-64300000D03*
X55217000Y-59300000D03*
X55217000Y-64300000D03*
%TD*%
D18*
%TO.C,DO5*%
X39377000Y-59300000D03*
D19*
X39377000Y-64300000D03*
X42877000Y-59300000D03*
X42877000Y-64300000D03*
%TD*%
D18*
%TO.C,DO4*%
X88737000Y-39625000D03*
D19*
X88737000Y-44625000D03*
X92237000Y-39625000D03*
X92237000Y-44625000D03*
%TD*%
D18*
%TO.C,DO3*%
X76397000Y-39625000D03*
D19*
X76397000Y-44625000D03*
X79897000Y-39625000D03*
X79897000Y-44625000D03*
%TD*%
D18*
%TO.C,DO2*%
X64057000Y-39625000D03*
D19*
X64057000Y-44625000D03*
X67557000Y-39625000D03*
X67557000Y-44625000D03*
%TD*%
D18*
%TO.C,DO1*%
X51717000Y-39625000D03*
D19*
X51717000Y-44625000D03*
X55217000Y-39625000D03*
X55217000Y-44625000D03*
%TD*%
D27*
%TO.C,D12*%
X97900000Y-80000000D03*
D28*
X117000000Y-80000000D03*
%TD*%
D27*
%TO.C,D11*%
X97900000Y-75150000D03*
D28*
X117000000Y-75150000D03*
%TD*%
D27*
%TO.C,D10*%
X97900000Y-70300000D03*
D28*
X117000000Y-70300000D03*
%TD*%
D27*
%TO.C,D9*%
X97900000Y-65450000D03*
D28*
X117000000Y-65450000D03*
%TD*%
D27*
%TO.C,D8*%
X97900000Y-60600000D03*
D28*
X117000000Y-60600000D03*
%TD*%
D27*
%TO.C,D7*%
X97900000Y-55750000D03*
D28*
X117000000Y-55750000D03*
%TD*%
D27*
%TO.C,D6*%
X97900000Y-50900000D03*
D28*
X117000000Y-50900000D03*
%TD*%
D27*
%TO.C,D3*%
X97900000Y-46050000D03*
D28*
X117000000Y-46050000D03*
%TD*%
D27*
%TO.C,D2*%
X97900000Y-41200000D03*
D28*
X117000000Y-41200000D03*
%TD*%
D27*
%TO.C,D1*%
X97900000Y-36350000D03*
D28*
X117000000Y-36350000D03*
%TD*%
D18*
%TO.C,CAN1*%
X39377000Y-39625000D03*
D19*
X39377000Y-44625000D03*
X42877000Y-39625000D03*
X42877000Y-44625000D03*
%TD*%
D29*
%TO.C,C16*%
X63157000Y-118810000D03*
X64577000Y-118810000D03*
%TD*%
%TO.C,C14*%
X63157000Y-116520000D03*
X64577000Y-116520000D03*
%TD*%
D30*
%TO.C,C13*%
X161455000Y-81455000D03*
X162115000Y-81455000D03*
%TD*%
%TO.C,C9*%
X161455000Y-79685000D03*
X162115000Y-79685000D03*
%TD*%
%TO.C,C6*%
X161455000Y-77915000D03*
X162115000Y-77915000D03*
%TD*%
%TO.C,C5*%
X161455000Y-76145000D03*
X162115000Y-76145000D03*
%TD*%
%TO.C,C4*%
X161455000Y-74375000D03*
X162115000Y-74375000D03*
%TD*%
%TO.C,C3*%
X161455000Y-72605000D03*
X162115000Y-72605000D03*
%TD*%
%TO.C,C2*%
X161455000Y-70835000D03*
X162115000Y-70835000D03*
%TD*%
D29*
%TO.C,C1*%
X63157000Y-114230000D03*
X64577000Y-114230000D03*
%TD*%
D31*
%TO.C,U4*%
X63487000Y-108652500D03*
D32*
X63349500Y-109565000D03*
X63349500Y-110065000D03*
X63349500Y-110565000D03*
X63349500Y-111065000D03*
D31*
X63487000Y-111977500D03*
X63987000Y-111977500D03*
X64487000Y-111977500D03*
X64987000Y-111977500D03*
X65487000Y-111977500D03*
X65987000Y-111977500D03*
X66487000Y-111977500D03*
X66987000Y-111977500D03*
X67487000Y-111977500D03*
X67987000Y-111977500D03*
D32*
X68124500Y-111065000D03*
X68124500Y-110565000D03*
X68124500Y-110065000D03*
X68124500Y-109565000D03*
D31*
X67987000Y-108652500D03*
X67487000Y-108652500D03*
X66987000Y-108652500D03*
X66487000Y-108652500D03*
X65987000Y-108652500D03*
X65487000Y-108652500D03*
X64987000Y-108652500D03*
X64487000Y-108652500D03*
X63987000Y-108652500D03*
%TD*%
D33*
%TO.C,U1*%
X212085519Y-31888819D03*
X212439072Y-31535266D03*
X212792625Y-31181713D03*
X213146179Y-30828159D03*
X213499732Y-30474606D03*
X213853286Y-30121052D03*
X214206839Y-29767499D03*
X214560392Y-29413946D03*
X214913946Y-29060392D03*
X215267499Y-28706839D03*
X215621052Y-28353286D03*
X215974606Y-27999732D03*
X216328159Y-27646179D03*
X216681713Y-27292625D03*
X217035266Y-26939072D03*
X217388819Y-26585519D03*
D34*
X220111181Y-26585519D03*
X220464734Y-26939072D03*
X220818287Y-27292625D03*
X221171841Y-27646179D03*
X221525394Y-27999732D03*
X221878948Y-28353286D03*
X222232501Y-28706839D03*
X222586054Y-29060392D03*
X222939608Y-29413946D03*
X223293161Y-29767499D03*
X223646714Y-30121052D03*
X224000268Y-30474606D03*
X224353821Y-30828159D03*
X224707375Y-31181713D03*
X225060928Y-31535266D03*
X225414481Y-31888819D03*
D33*
X225414481Y-34611181D03*
X225060928Y-34964734D03*
X224707375Y-35318287D03*
X224353821Y-35671841D03*
X224000268Y-36025394D03*
X223646714Y-36378948D03*
X223293161Y-36732501D03*
X222939608Y-37086054D03*
X222586054Y-37439608D03*
X222232501Y-37793161D03*
X221878948Y-38146714D03*
X221525394Y-38500268D03*
X221171841Y-38853821D03*
X220818287Y-39207375D03*
X220464734Y-39560928D03*
X220111181Y-39914481D03*
D34*
X217388819Y-39914481D03*
X217035266Y-39560928D03*
X216681713Y-39207375D03*
X216328159Y-38853821D03*
X215974606Y-38500268D03*
X215621052Y-38146714D03*
X215267499Y-37793161D03*
X214913946Y-37439608D03*
X214560392Y-37086054D03*
X214206839Y-36732501D03*
X213853286Y-36378948D03*
X213499732Y-36025394D03*
X213146179Y-35671841D03*
X212792625Y-35318287D03*
X212439072Y-34964734D03*
X212085519Y-34611181D03*
%TD*%
M02*
