M48
INCH
T1C0.0279
T2C0.0413
T3C0.0472
%
G90
G05
T1
X1.4717Y-3.8053
X1.4717Y-3.8843
X1.4717Y-3.9633
X1.4717Y-4.0422
X1.4717Y-4.1213
X1.4717Y-4.2003
X1.4717Y-4.2793
X1.4717Y-4.3583
X1.4717Y-4.4372
X1.4717Y-4.5163
X2.3377Y-3.8053
X2.3377Y-3.8843
X2.3377Y-3.9633
X2.3377Y-4.0422
X2.3377Y-4.1213
X2.3377Y-4.2003
X2.3377Y-4.2793
X2.3377Y-4.3583
X2.3377Y-4.4372
X2.3377Y-4.5163
T2
X3.8543Y-1.4311
X3.8543Y-1.622
X3.8543Y-1.813
X3.8543Y-2.0039
X3.8543Y-2.1949
X3.8543Y-2.3858
X3.8543Y-2.5768
X3.8543Y-2.7677
X3.8543Y-2.9587
X3.8543Y-3.1496
X4.6063Y-1.4311
X4.6063Y-1.622
X4.6063Y-1.813
X4.6063Y-2.0039
X4.6063Y-2.1949
X4.6063Y-2.3858
X4.6063Y-2.5768
X4.6063Y-2.7677
X4.6063Y-2.9587
X4.6063Y-3.1496
T3
X1.5503Y-1.56
X1.5503Y-1.7569
X1.5503Y-2.3346
X1.5503Y-2.5315
X1.5503Y-3.1093
X1.5503Y-3.3061
X1.6881Y-1.56
X1.6881Y-1.7569
X1.6881Y-2.3346
X1.6881Y-2.5315
X1.6881Y-3.1093
X1.6881Y-3.3061
X2.0361Y-1.56
X2.0361Y-1.7569
X2.0361Y-2.3346
X2.0361Y-2.5315
X2.0361Y-3.1093
X2.0361Y-3.3061
X2.1739Y-1.56
X2.1739Y-1.7569
X2.1739Y-2.3346
X2.1739Y-2.5315
X2.1739Y-3.1093
X2.1739Y-3.3061
X2.5219Y-1.56
X2.5219Y-1.7569
X2.5219Y-2.3346
X2.5219Y-2.5315
X2.5219Y-3.1093
X2.5219Y-3.3061
X2.6597Y-1.56
X2.6597Y-1.7569
X2.6597Y-2.3346
X2.6597Y-2.5315
X2.6597Y-3.1093
X2.6597Y-3.3061
X3.0078Y-1.56
X3.0078Y-1.7569
X3.0078Y-2.3346
X3.0078Y-2.5315
X3.0078Y-3.1093
X3.0078Y-3.3061
X3.1456Y-1.56
X3.1456Y-1.7569
X3.1456Y-2.3346
X3.1456Y-2.5315
X3.1456Y-3.1093
X3.1456Y-3.3061
X3.4936Y-1.56
X3.4936Y-1.7569
X3.4936Y-2.3346
X3.4936Y-2.5315
X3.6314Y-1.56
X3.6314Y-1.7569
X3.6314Y-2.3346
X3.6314Y-2.5315
X5.3287Y-2.9783
X5.3287Y-3.1752
X5.7815Y-2.9783
X5.7815Y-3.1752
X7.2736Y-1.0433
X7.2736Y-1.1811
X7.2736Y-1.6282
X7.2736Y-1.766
X7.2736Y-2.2132
X7.2736Y-2.351
X7.2736Y-2.7981
X7.2736Y-2.9359
X7.2736Y-3.383
X7.2736Y-3.5208
X7.2736Y-3.9679
X7.2736Y-4.1057
X7.2736Y-4.5529
X7.2736Y-4.6907
X7.2736Y-5.1378
X7.2736Y-5.2756
X7.2736Y-1.3189
X7.2736Y-1.9038
X7.2736Y-2.4888
X7.2736Y-3.0737
X7.2736Y-3.6586
X7.2736Y-4.2435
X7.2736Y-4.8285
X7.2736Y-5.4134
X7.4705Y-1.0433
X7.4705Y-1.1811
X7.4705Y-1.3189
X7.4705Y-1.6282
X7.4705Y-1.766
X7.4705Y-1.9038
X7.4705Y-2.2132
X7.4705Y-2.351
X7.4705Y-2.4888
X7.4705Y-2.7981
X7.4705Y-2.9359
X7.4705Y-3.0737
X7.4705Y-3.383
X7.4705Y-3.5208
X7.4705Y-3.6586
X7.4705Y-3.9679
X7.4705Y-4.1057
X7.4705Y-4.2435
X7.4705Y-4.5529
X7.4705Y-4.6907
X7.4705Y-4.8285
X7.4705Y-5.1378
X7.4705Y-5.2756
X7.4705Y-5.4134
M30
