%TF.GenerationSoftware,KiCad,Pcbnew,8.0.4*%
%TF.CreationDate,2024-08-13T00:07:41-07:00*%
%TF.ProjectId,RoboRyo,526f626f-5279-46f2-9e6b-696361645f70,rev?*%
%TF.SameCoordinates,Original*%
%TF.FileFunction,Copper,L3,Inr*%
%TF.FilePolarity,Positive*%
%FSLAX46Y46*%
G04 Gerber Fmt 4.6, Leading zero omitted, Abs format (unit mm)*
G04 Created by KiCad (PCBNEW 8.0.4) date 2024-08-13 00:07:41*
%MOMM*%
%LPD*%
G01*
G04 APERTURE LIST*
%TA.AperFunction,ComponentPad*%
%ADD10R,1.800000X1.800000*%
%TD*%
%TA.AperFunction,ComponentPad*%
%ADD11C,1.800000*%
%TD*%
%TA.AperFunction,ComponentPad*%
%ADD12R,1.214000X1.214000*%
%TD*%
%TA.AperFunction,ComponentPad*%
%ADD13C,1.214000*%
%TD*%
%TA.AperFunction,ComponentPad*%
%ADD14R,1.575000X1.575000*%
%TD*%
%TA.AperFunction,ComponentPad*%
%ADD15C,1.575000*%
%TD*%
G04 APERTURE END LIST*
D10*
%TO.N,+12VA*%
%TO.C,PowerIN1*%
X135350000Y-75650000D03*
D11*
X135350000Y-80650000D03*
%TO.N,GND*%
X146850000Y-75650000D03*
X146850000Y-80650000D03*
%TD*%
D10*
%TO.N,/mPWM8*%
%TO.C,J8*%
X189750000Y-130499999D03*
D11*
X184750000Y-130499999D03*
%TO.N,+5V*%
X189750000Y-133999999D03*
X184750000Y-133999999D03*
%TO.N,GND*%
X189750000Y-137499998D03*
X184750001Y-137499999D03*
%TD*%
D10*
%TO.N,/mPWM6*%
%TO.C,J7*%
X189750000Y-100785710D03*
D11*
X184750000Y-100785710D03*
%TO.N,+5V*%
X189750000Y-104285710D03*
X184750000Y-104285710D03*
%TO.N,GND*%
X189750000Y-107785709D03*
X184750001Y-107785710D03*
%TD*%
D10*
%TO.N,/mPWM4*%
%TO.C,J6*%
X189750000Y-71071426D03*
D11*
X184750000Y-71071426D03*
%TO.N,+5V*%
X189750000Y-74571426D03*
X184750000Y-74571426D03*
%TO.N,GND*%
X189750000Y-78071425D03*
X184750001Y-78071426D03*
%TD*%
D10*
%TO.N,/mPWM2*%
%TO.C,J5*%
X189750000Y-41357142D03*
D11*
X184750000Y-41357142D03*
%TO.N,+5V*%
X189750000Y-44857142D03*
X184750000Y-44857142D03*
%TO.N,GND*%
X189750000Y-48357141D03*
X184750001Y-48357142D03*
%TD*%
D10*
%TO.N,/mPWM7*%
%TO.C,J4*%
X189750000Y-115642852D03*
D11*
X184750000Y-115642852D03*
%TO.N,+5V*%
X189750000Y-119142852D03*
X184750000Y-119142852D03*
%TO.N,GND*%
X189750000Y-122642851D03*
X184750001Y-122642852D03*
%TD*%
D10*
%TO.N,/mPWM5*%
%TO.C,J3*%
X189750000Y-85928568D03*
D11*
X184750000Y-85928568D03*
%TO.N,+5V*%
X189750000Y-89428568D03*
X184750000Y-89428568D03*
%TO.N,GND*%
X189750000Y-92928567D03*
X184750001Y-92928568D03*
%TD*%
D10*
%TO.N,/mPWM3*%
%TO.C,J2*%
X189750000Y-56214284D03*
D11*
X184750000Y-56214284D03*
%TO.N,+5V*%
X189750000Y-59714284D03*
X184750000Y-59714284D03*
%TO.N,GND*%
X189750000Y-63214283D03*
X184750001Y-63214284D03*
%TD*%
D10*
%TO.N,/mPWM1*%
%TO.C,J1*%
X189750000Y-26500000D03*
D11*
X184750000Y-26500000D03*
%TO.N,+5V*%
X189750000Y-30000000D03*
X184750000Y-30000000D03*
%TO.N,GND*%
X189750000Y-33499999D03*
X184750001Y-33500000D03*
%TD*%
D12*
%TO.N,+3V3*%
%TO.C,IC1*%
X59377000Y-114713000D03*
D13*
%TO.N,/Radio_UART_TX*%
X59377000Y-112706000D03*
%TO.N,/Radio_UART_RX*%
X59377000Y-110700000D03*
%TO.N,unconnected-(IC1-SPI_MISO-Pad4)*%
X59377000Y-108693000D03*
%TO.N,unconnected-(IC1-~{RESET}-Pad5)*%
X59377000Y-106687000D03*
%TO.N,unconnected-(IC1-PWM0{slash}RSSI_PWM-Pad6)*%
X59377000Y-104680000D03*
%TO.N,unconnected-(IC1-PWM1-Pad7)*%
X59377000Y-102673000D03*
%TO.N,unconnected-(IC1-RESERVED-Pad8)*%
X59377000Y-100667000D03*
%TO.N,unconnected-(IC1-DI8{slash}SLEEP__RQ{slash}~{DTR}-Pad9)*%
X59377000Y-98660000D03*
%TO.N,GND*%
X59377000Y-96654000D03*
%TO.N,unconnected-(IC1-DIO4{slash}SPI_MOSI-Pad11)*%
X37381000Y-96654000D03*
%TO.N,unconnected-(IC1-DIO7{slash}~{CTS}-Pad12)*%
X37381000Y-98660000D03*
%TO.N,Net-(IC1-ON{slash}~{SLEEP})*%
X37381000Y-100667000D03*
%TO.N,unconnected-(IC1-VREF-Pad14)*%
X37381000Y-102673000D03*
%TO.N,Net-(IC1-DIO5{slash}ASSOC)*%
X37381000Y-104680000D03*
%TO.N,unconnected-(IC1-DIO6{slash}~{RTS}-Pad16)*%
X37381000Y-106687000D03*
%TO.N,unconnected-(IC1-DIO3{slash}AD3{slash}SPI__~{SSEL}-Pad17)*%
X37381000Y-108693000D03*
%TO.N,unconnected-(IC1-DIO2{slash}AD2{slash}SPI__CLK-Pad18)*%
X37381000Y-110700000D03*
%TO.N,unconnected-(IC1-DIO1{slash}AD1{slash}SPI__~{ATTN}-Pad19)*%
X37381000Y-112706000D03*
%TO.N,unconnected-(IC1-DIO0{slash}AD0_-Pad20)*%
X37381000Y-114713000D03*
%TD*%
D10*
%TO.N,/RSL_EX*%
%TO.C,DO13*%
X76397000Y-78975000D03*
D11*
X76397000Y-83975000D03*
%TO.N,GND*%
X79897000Y-78975000D03*
X79897000Y-83975000D03*
%TD*%
D10*
%TO.N,unconnected-(DO12-1.1-Pad1)*%
%TO.C,DO12*%
X64057000Y-78975000D03*
D11*
%TO.N,unconnected-(DO12-1.2-Pad2)*%
X64057000Y-83975000D03*
%TO.N,GND*%
X67557000Y-78975000D03*
X67557000Y-83975000D03*
%TD*%
D10*
%TO.N,/RSL_EX*%
%TO.C,DO11*%
X51717000Y-78975000D03*
D11*
X51717000Y-83975000D03*
%TO.N,GND*%
X55217000Y-78975000D03*
X55217000Y-83975000D03*
%TD*%
D10*
%TO.N,/DO10*%
%TO.C,DO10*%
X39377000Y-78975000D03*
D11*
X39377000Y-83975000D03*
%TO.N,GND*%
X42877000Y-78975000D03*
X42877000Y-83975000D03*
%TD*%
D10*
%TO.N,/DO9*%
%TO.C,DO9*%
X88737000Y-59300000D03*
D11*
X88737000Y-64300000D03*
%TO.N,GND*%
X92237000Y-59300000D03*
X92237000Y-64300000D03*
%TD*%
D10*
%TO.N,/DO8*%
%TO.C,DO8*%
X76397000Y-59300000D03*
D11*
X76397000Y-64300000D03*
%TO.N,GND*%
X79897000Y-59300000D03*
X79897000Y-64300000D03*
%TD*%
D10*
%TO.N,/DO7*%
%TO.C,DO7*%
X64057000Y-59300000D03*
D11*
X64057000Y-64300000D03*
%TO.N,GND*%
X67557000Y-59300000D03*
X67557000Y-64300000D03*
%TD*%
D10*
%TO.N,/DO6*%
%TO.C,DO6*%
X51717000Y-59300000D03*
D11*
X51717000Y-64300000D03*
%TO.N,GND*%
X55217000Y-59300000D03*
X55217000Y-64300000D03*
%TD*%
D10*
%TO.N,/DO5*%
%TO.C,DO5*%
X39377000Y-59300000D03*
D11*
X39377000Y-64300000D03*
%TO.N,GND*%
X42877000Y-59300000D03*
X42877000Y-64300000D03*
%TD*%
D10*
%TO.N,/DO4*%
%TO.C,DO4*%
X88737000Y-39625000D03*
D11*
X88737000Y-44625000D03*
%TO.N,GND*%
X92237000Y-39625000D03*
X92237000Y-44625000D03*
%TD*%
D10*
%TO.N,/DO3*%
%TO.C,DO3*%
X76397000Y-39625000D03*
D11*
X76397000Y-44625000D03*
%TO.N,GND*%
X79897000Y-39625000D03*
X79897000Y-44625000D03*
%TD*%
D10*
%TO.N,/DO2*%
%TO.C,DO2*%
X64057000Y-39625000D03*
D11*
X64057000Y-44625000D03*
%TO.N,GND*%
X67557000Y-39625000D03*
X67557000Y-44625000D03*
%TD*%
D10*
%TO.N,/DO1*%
%TO.C,DO1*%
X51717000Y-39625000D03*
D11*
X51717000Y-44625000D03*
%TO.N,GND*%
X55217000Y-39625000D03*
X55217000Y-44625000D03*
%TD*%
D14*
%TO.N,/DO2*%
%TO.C,D12*%
X97900000Y-80000000D03*
D15*
%TO.N,Net-(D12-A)*%
X117000000Y-80000000D03*
%TD*%
D14*
%TO.N,/DO1*%
%TO.C,D11*%
X97900000Y-75150000D03*
D15*
%TO.N,Net-(D11-A)*%
X117000000Y-75150000D03*
%TD*%
D14*
%TO.N,/DO4*%
%TO.C,D10*%
X97900000Y-70300000D03*
D15*
%TO.N,Net-(D10-A)*%
X117000000Y-70300000D03*
%TD*%
D14*
%TO.N,/DO3*%
%TO.C,D9*%
X97900000Y-65450000D03*
D15*
%TO.N,Net-(D9-A)*%
X117000000Y-65450000D03*
%TD*%
D14*
%TO.N,/DO6*%
%TO.C,D8*%
X97900000Y-60600000D03*
D15*
%TO.N,Net-(D8-A)*%
X117000000Y-60600000D03*
%TD*%
D14*
%TO.N,/DO5*%
%TO.C,D7*%
X97900000Y-55750000D03*
D15*
%TO.N,Net-(D7-A)*%
X117000000Y-55750000D03*
%TD*%
D14*
%TO.N,/DO8*%
%TO.C,D6*%
X97900000Y-50900000D03*
D15*
%TO.N,Net-(D6-A)*%
X117000000Y-50900000D03*
%TD*%
D14*
%TO.N,/DO10*%
%TO.C,D3*%
X97900000Y-46050000D03*
D15*
%TO.N,Net-(D3-A)*%
X117000000Y-46050000D03*
%TD*%
D14*
%TO.N,/DO9*%
%TO.C,D2*%
X97900000Y-41200000D03*
D15*
%TO.N,Net-(D2-A)*%
X117000000Y-41200000D03*
%TD*%
D14*
%TO.N,/DO7*%
%TO.C,D1*%
X97900000Y-36350000D03*
D15*
%TO.N,Net-(D1-A)*%
X117000000Y-36350000D03*
%TD*%
D10*
%TO.N,/CAN_RX*%
%TO.C,CAN1*%
X39377000Y-39625000D03*
D11*
X39377000Y-44625000D03*
%TO.N,/CAN_TX*%
X42877000Y-39625000D03*
X42877000Y-44625000D03*
%TD*%
M02*
